# xmcd CD database file
#
# Track frame offsets:
#	150
#	35780
#	60252
#	78907
#	117407
#	142297
#	182680
#	211277
#	216820
#	255965
#	283427
#
# Disc length: 4209 seconds
#
# Revision: 2
# Processed by: cddbd v1.5PL3 Copyright (c) Steve Scherf et al.
# Submitted via: CDex 1.51
#
DISCID=a8106f0b
DTITLE=Various Artist - Sacred World
DYEAR=2000
DGENRE=New Age
TTITLE0=Gate' Gate' -Deva Premal
TTITLE1=Before Dawn - Shastro
TTITLE2=Kokopelli's ritual - Anugama
TTITLE3=Dakin - Prem Joshua
TTITLE4=Thunder Cloud -Karunesh
TTITLE5=OM Shree Sache'-Deva Premal
TTITLE6=Full Moon Trance - Shastro
TTITLE7=Cal To Prayer - Golana
TTITLE8=Sky Kisses Earth - Prem Joshua
TTITLE9=Embrace - Shastro
TTITLE10=Standing At The Gate - Golana
EXTD=YEAR: 2000
EXTT0=
EXTT1=
EXTT2=
EXTT3=
EXTT4=
EXTT5=
EXTT6=
EXTT7=
EXTT8=
EXTT9=
EXTT10=
PLAYORDER=
